<?xml version="1.0" standalone="no"?>
<!DOCTYPE svg PUBLIC "-//W3C//DTD SVG 20010904//EN"
 "http://www.w3.org/TR/2001/REC-SVG-20010904/DTD/svg10.dtd">
<svg version="1.0" xmlns="http://www.w3.org/2000/svg"
 width="144.000000pt" height="143.000000pt" viewBox="0 0 144.000000 143.000000"
 preserveAspectRatio="xMidYMid meet">

<g transform="translate(0.000000,143.000000) scale(0.100000,-0.100000)"
fill="#000000" stroke="none">
<path d="M630 1289 c-75 -12 -170 -61 -214 -109 -47 -53 -91 -141 -138 -280
-21 -63 -58 -149 -82 -190 -63 -109 -86 -182 -70 -224 8 -20 60 -21 94 -1 14
8 28 14 31 15 4 0 9 -28 12 -62 8 -85 22 -128 60 -185 32 -47 104 -103 159
-122 l28 -10 -29 37 c-67 83 -114 232 -132 416 -22 236 23 431 121 520 58 53
93 49 174 -21 44 -37 67 -41 87 -16 32 38 93 73 127 73 67 0 147 -116 177
-255 47 -225 -17 -622 -118 -733 l-22 -23 30 11 c48 18 108 56 137 87 43 45
78 134 85 213 6 74 13 81 51 54 27 -19 71 -15 85 7 17 28 -9 118 -59 203 -25
42 -70 143 -98 224 -74 209 -124 281 -235 336 -50 25 -136 47 -179 45 -15 -1
-52 -5 -82 -10z"/>
<path d="M425 986 c-18 -13 -18 -16 -4 -33 9 -10 21 -37 28 -60 15 -55 54 -77
120 -70 38 4 51 12 88 53 l42 49 45 -47 c51 -54 80 -64 139 -52 43 9 44 10 85
102 17 37 18 45 5 57 -19 19 -148 20 -218 2 -41 -11 -59 -11 -100 0 -68 17
-206 17 -230 -1z"/>
<path d="M664 629 c-61 -14 -100 -61 -134 -160 -16 -46 -38 -102 -49 -124 -12
-21 -21 -50 -21 -63 0 -21 3 -23 29 -17 27 6 28 4 34 -36 7 -55 33 -89 87
-116 59 -30 131 -30 190 0 56 28 81 63 87 121 5 41 7 44 24 35 45 -24 50 12
13 91 -14 30 -36 86 -49 124 -41 120 -111 168 -211 145z m11 -81 c22 -17 31
-19 44 -10 57 42 71 39 104 -17 l18 -31 -63 -1 c-35 -1 -93 -1 -130 1 -38 1
-68 0 -68 -2 0 -3 5 -19 11 -37 16 -44 52 -52 88 -17 27 26 28 26 46 6 37 -41
87 -33 99 16 5 19 10 24 18 16 18 -18 5 -220 -17 -266 -49 -102 -179 -100
-239 4 -16 27 -21 57 -24 136 -4 108 5 155 39 198 25 32 38 32 74 4z"/>
</g>
</svg>
