<?xml version="1.0" standalone="no"?>
<!DOCTYPE svg PUBLIC "-//W3C//DTD SVG 20010904//EN"
 "http://www.w3.org/TR/2001/REC-SVG-20010904/DTD/svg10.dtd">
<svg version="1.0" xmlns="http://www.w3.org/2000/svg"
 width="144.000000pt" height="143.000000pt" viewBox="0 0 144.000000 143.000000"
 preserveAspectRatio="xMidYMid meet">
<metadata>
Created by potrace 1.10, written by Peter Selinger 2001-2011
</metadata>
<g transform="translate(0.000000,143.000000) scale(0.100000,-0.100000)"
fill="#000000" stroke="none">
<path d="M640 1294 c-193 -37 -276 -130 -371 -411 -21 -64 -57 -146 -78 -182
-67 -111 -89 -203 -56 -231 14 -12 50 -3 116 28 3 1 8 -28 11 -66 6 -86 47
-180 99 -227 21 -19 66 -49 101 -66 l62 -31 -32 36 c-91 104 -143 302 -143
546 -1 193 34 311 116 397 59 61 97 59 178 -13 20 -19 44 -34 53 -34 8 0 37
18 64 41 33 28 61 42 89 46 39 5 44 3 81 -37 92 -99 126 -237 116 -460 -9
-216 -57 -395 -127 -483 l-31 -38 70 35 c122 61 192 173 192 307 0 27 4 49 8
49 4 0 25 -9 46 -19 82 -42 109 16 62 131 -13 32 -38 79 -55 107 -17 27 -49
101 -71 166 -80 238 -152 338 -278 385 -56 21 -171 33 -222 24z m190 -41 c113
-32 180 -100 238 -243 17 -41 33 -86 37 -100 15 -54 58 -157 85 -200 46 -74
67 -130 66 -174 -1 -37 -3 -41 -26 -38 -13 1 -27 7 -31 13 -3 6 -19 9 -35 7
-28 -3 -29 -6 -36 -68 -13 -121 -47 -189 -126 -252 -26 -21 -29 -7 -9 32 16
30 52 165 62 230 4 25 9 54 12 65 5 28 4 284 -3 320 -21 124 -85 247 -146 285
-48 29 -97 26 -146 -9 -22 -16 -43 -34 -47 -40 -12 -20 -42 -11 -76 20 -40 38
-68 49 -118 49 -32 0 -45 -7 -84 -47 -26 -26 -47 -52 -47 -58 0 -6 -8 -20 -17
-31 -10 -10 -19 -26 -20 -34 -1 -8 -11 -49 -22 -90 -16 -62 -19 -100 -16 -225
2 -82 10 -184 18 -225 17 -81 62 -216 81 -239 9 -12 8 -12 -13 0 -32 18 -72
64 -93 106 -20 41 -42 138 -35 162 2 10 -2 26 -9 35 -12 17 -16 17 -60 2 -25
-8 -51 -13 -56 -10 -25 16 9 127 63 209 14 22 39 76 54 120 16 44 33 83 39 87
6 4 7 10 4 14 -11 10 38 129 74 182 64 92 119 131 218 151 106 21 122 21 220
-6z"/>
<path d="M428 989 c-20 -11 -24 -35 -7 -41 6 -2 18 -26 28 -53 19 -58 44 -75
110 -75 41 0 49 4 94 53 l48 52 44 -50 c43 -50 44 -50 103 -50 69 0 97 18 107
69 4 17 13 41 21 53 12 19 12 24 -2 37 -19 20 -168 21 -229 2 -32 -10 -50 -10
-90 1 -59 15 -203 17 -227 2z m234 -29 l28 -13 -38 -39 c-20 -22 -49 -46 -63
-53 -27 -15 -74 -11 -95 6 -17 14 -45 99 -38 111 9 14 172 4 206 -12z m280 14
c13 -4 16 -10 10 -17 -5 -7 -12 -25 -16 -42 -12 -49 -33 -65 -88 -65 -37 0
-52 5 -66 21 -9 12 -30 34 -47 50 -32 30 -32 30 35 47 44 11 146 15 172 6z"/>
<path d="M655 823 c-35 -52 -32 -71 12 -89 33 -14 40 -14 70 0 40 19 40 27 8
83 -32 54 -56 55 -90 6z m68 -20 c19 -37 12 -53 -23 -53 -42 0 -54 22 -29 54
26 33 35 33 52 -1z"/>
<path d="M659 631 c-68 -22 -98 -60 -134 -171 -10 -30 -28 -76 -41 -102 -25
-50 -32 -98 -13 -98 18 0 49 20 49 31 0 6 -7 9 -15 5 -20 -7 -19 17 2 57 l18
32 5 -50 c3 -27 2 -51 -2 -53 -14 -6 -9 -70 8 -104 38 -80 172 -114 264 -66
56 29 90 78 90 130 0 35 2 38 19 28 11 -5 24 -10 30 -10 19 0 12 48 -13 98
-13 26 -31 72 -41 102 -37 117 -80 164 -160 174 -22 3 -52 1 -66 -3z m94 -30
c15 -6 13 -9 -17 -24 -34 -16 -37 -16 -67 2 -27 16 -28 20 -13 24 29 7 77 6
97 -2z m-75 -56 c26 -22 31 -23 43 -9 39 48 76 37 109 -31 20 -41 22 -58 18
-153 -3 -85 -8 -116 -25 -148 -38 -72 -128 -94 -192 -46 -46 34 -65 88 -69
193 -5 107 6 153 43 193 30 32 36 32 73 1z m226 -207 c-3 -5 -1 -8 5 -8 5 0 9
-9 8 -19 0 -11 -5 -17 -10 -14 -4 2 -14 0 -21 -6 -10 -9 -13 -6 -11 11 1 13 3
36 4 52 1 28 2 29 15 11 8 -11 12 -23 10 -27z m-56 -158 c-7 -10 -14 -17 -17
-15 -4 4 18 35 25 35 2 0 -1 -9 -8 -20z m-248 -35 c0 -12 -20 6 -31 28 l-11
22 21 -22 c11 -12 21 -25 21 -28z"/>
<path d="M592 492 c-9 -7 -10 -16 -1 -40 16 -45 52 -53 88 -18 l27 26 24 -25
c40 -42 81 -31 95 27 6 23 3 28 -18 33 -14 4 -41 2 -60 -3 -22 -6 -51 -7 -74
-1 -47 11 -65 11 -81 1z m76 -34 c-3 -7 -13 -13 -23 -13 -10 0 -20 6 -22 13
-3 7 5 12 22 12 17 0 25 -5 23 -12z m125 -5 c-6 -14 -14 -16 -37 -7 -26 10
-18 24 13 22 19 -1 27 -7 24 -15z"/>
<path d="M696 433 c-12 -12 -6 -33 9 -33 8 0 15 6 15 14 0 17 -14 28 -24 19z"/>
</g>
</svg>
